<?xml version="1.0" standalone="no"?><!DOCTYPE svg PUBLIC "-//W3C//DTD SVG 1.1//EN" "http://www.w3.org/Graphics/SVG/1.1/DTD/svg11.dtd"><svg t="1565257260759" class="icon" viewBox="0 0 1024 1024" version="1.1" xmlns="http://www.w3.org/2000/svg" p-id="3393" xmlns:xlink="http://www.w3.org/1999/xlink" width="200" height="200"><defs><style type="text/css"></style></defs><path d="M90.88 541.44h263.168v89.6H90.88zM677.632 541.44h278.272v89.6H677.632zM100.096 761.6h829.696v89.6H100.096z" fill="#4CD964" p-id="3394"></path><path d="M90.88 586.496m-44.544 0a44.544 44.544 0 1 0 89.088 0 44.544 44.544 0 1 0-89.088 0Z" fill="#4CD964" p-id="3395"></path><path d="M955.648 586.496m-44.544 0a44.544 44.544 0 1 0 89.088 0 44.544 44.544 0 1 0-89.088 0Z" fill="#4CD964" p-id="3396"></path><path d="M100.096 806.4m-44.544 0a44.544 44.544 0 1 0 89.088 0 44.544 44.544 0 1 0-89.088 0Z" fill="#4CD964" p-id="3397"></path><path d="M929.792 806.4m-44.544 0a44.544 44.544 0 1 0 89.088 0 44.544 44.544 0 1 0-89.088 0Z" fill="#4CD964" p-id="3398"></path><path d="M354.048 586.496m-44.544 0a44.544 44.544 0 1 0 89.088 0 44.544 44.544 0 1 0-89.088 0Z" fill="#4CD964" p-id="3399"></path><path d="M676.608 586.24m-44.8 0a44.8 44.8 0 1 0 89.6 0 44.8 44.8 0 1 0-89.6 0Z" fill="#4CD964" p-id="3400"></path><path d="M327.68 624.384a278.272 278.272 0 0 1-82.944-199.68A273.92 273.92 0 0 1 515.072 147.712a273.92 273.92 0 0 1 270.08 276.992 278.528 278.528 0 0 1-78.592 195.328l-64.256-62.464a189.696 189.696 0 0 0 53.248-132.864 184.32 184.32 0 0 0-180.48-187.392 184.32 184.32 0 0 0-180.48 187.392 189.184 189.184 0 0 0 56.064 135.936z" fill="#4CD964" p-id="3401"></path></svg>